%
M48
M72
T01C0.0160
T02C0.0315
T03C0.0320
T04C0.0433
T05C0.0630
T06C0.1260
%
T01
X5000Y3400
X5800Y1100
X8400Y4950
X11250Y4750
X12300Y4550
X13500Y4750
X14800Y4850
X15900Y5550
X17000Y5150
X17650Y5200
X17650Y4400
X19250Y4450
X22250Y4500
X23250Y4500
X17750Y10150
X17100Y9100
X15450Y10600
X15450Y11150
X14900Y11450
X14100Y10950
X14100Y10150
X14350Y9700
X13150Y10900
X12300Y10350
X12300Y9850
X12300Y8900
X9350Y9500
X9350Y10350
X12500Y11950
X12950Y12250
X13350Y11950
X13950Y11950
X11850Y14050
X12450Y16150
X13350Y16000
X14450Y16000
X15250Y14750
X16400Y17550
X14450Y17950
X13350Y17950
X12450Y17900
X10800Y17900
X9250Y19500
X7500Y17350
X5780Y16450
X4750Y10500
X12450Y19800
X13550Y20200
X16400Y19850
X18380Y19350
X19280Y18100
X20130Y19350
X20130Y16850
X18380Y16850
X21750Y13950
X18800Y12800
X18400Y12400
X18800Y12000
X18400Y11650
X15250Y7150
X19250Y21800
X18750Y22800
X17750Y22250
X16600Y22750
X22250Y21750
T02
X18750Y7750
X18750Y6750
X17750Y6750
X17750Y7750
X16750Y7750
X16750Y6750
T03
X10000Y13000
X10000Y17000
X12000Y21250
X12000Y23250
X14750Y23250
X14750Y21250
X3250Y21000
X3250Y19000
X1100Y15650
X1100Y11650
X7500Y4000
X7500Y2000
T04
X2000Y7500
X2000Y8500
X2000Y16750
X2000Y17750
X16750Y24500
X17750Y24500
X18750Y24500
X19750Y24500
X20750Y24500
T05
X4500Y16000
X5500Y7500
T06
X2000Y2000
X23750Y2000
X23750Y24000
X2000Y24000
M30
